<?xml version="1.0" encoding="UTF-8" standalone="no"?>
<svg
   xmlns:dc="http://purl.org/dc/elements/1.1/"
   xmlns:cc="http://creativecommons.org/ns#"
   xmlns:rdf="http://www.w3.org/1999/02/22-rdf-syntax-ns#"
   xmlns:svg="http://www.w3.org/2000/svg"
   xmlns="http://www.w3.org/2000/svg"
   xmlns:xlink="http://www.w3.org/1999/xlink"
   version="1.1"
   id="Layer_1"
   x="0px"
   y="0px"
   width="191.5"
   height="123.52226"
   viewBox="0 0 191.5 123.52226"
   enable-background="new 0 0 425.2 304.72"
   xml:space="preserve"><metadata
     id="metadata129"><rdf:RDF><cc:Work
         rdf:about=""><dc:format>image/svg+xml</dc:format><dc:type
           rdf:resource="http://purl.org/dc/dcmitype/StillImage" /><dc:title></dc:title></cc:Work></rdf:RDF></metadata><defs
     id="defs127" /><g
     id="g122"
     transform="matrix(0.55775232,0,0,0.55775232,-22.247978,-22.960786)"><defs
       id="defs3"><rect
         id="SVGID_1_"
         width="425.20001"
         height="304.72"
         x="0"
         y="0" /></defs><clipPath
       id="SVGID_2_"><use
         xlink:href="#SVGID_1_"
         overflow="visible"
         id="use5"
         style="overflow:visible"
         x="0"
         y="0"
         width="100%"
         height="100%" /></clipPath><path
       clip-path="url(#SVGID_2_)"
       stroke-miterlimit="10"
       d="M 77.349,97.961 C 67.457,97.343 58.016,88.969 58.016,78.178 c 0,-10.791 7.645,-18.618 19.333,-19.783 9.343,-0.774 19.621,5.901 21.03,7.072 0.186,-0.302 0.372,-0.605 0.558,-0.908 -0.002,-4.453 -0.004,-8.906 -0.006,-13.358 -5.845,-4.227 -13.039,-5.845 -21.582,-5.845 -18.344,0 -33.271,14.747 -33.271,32.822 0,18.075 14.927,32.822 33.271,32.822 8.543,0 15.737,-1.619 21.582,-5.845 0.009,-4.361 0.019,-8.722 0.029,-13.083 -0.241,-0.391 -0.482,-0.782 -0.723,-1.173 -1.909,1.285 -10.34,7.336 -20.888,7.062 z"
       id="path8"
       style="fill:none;stroke:#000396;stroke-width:3;stroke-miterlimit:10" /><path
       clip-path="url(#SVGID_2_)"
       stroke-miterlimit="10"
       d="M 121.355,72.536 V 60.3 h 29.458 l 0.453,-0.453 c 0.002,-3.769 0.003,-7.538 0.005,-11.306 -0.026,-0.045 -0.538,-0.926 -0.541,-0.931 -13.914,-10e-4 -27.503,-0.002 -41.417,-0.003 -0.216,0.304 -0.432,0.609 -0.648,0.914 -0.009,20.513 -0.019,41.027 -0.029,61.54 0.232,0.337 0.464,0.675 0.695,1.012 3.819,-0.002 7.639,-0.004 11.458,-0.005 0.188,-0.356 0.375,-0.712 0.563,-1.067 10e-4,-8.258 0.002,-16.517 0.003,-24.775 6.927,0 13.854,0.001 20.781,0.001 0.323,-0.328 0.645,-0.657 0.968,-0.985 0.005,-3.567 0.012,-7.134 0.018,-10.7 -0.256,-0.347 -0.512,-0.694 -0.767,-1.041 -7,0.012 -14,0.023 -21,0.035 z"
       id="path10"
       style="fill:none;stroke:#000396;stroke-width:3;stroke-miterlimit:10" /><path
       clip-path="url(#SVGID_2_)"
       stroke-miterlimit="10"
       d="m 173.1,48.765 -29.777,61.296 0.744,1.013 h 10.506 1.306 0.592 l 1.183,-0.925 c 1.38,-2.804 4.183,-8.357 4.183,-8.357 h 22.733 c 1.339,2.767 2.677,5.562 4.016,8.336 l 0.876,0.946 h 12.965 l 0.592,-0.89 z m -5.797,41.607 5.921,-12.743 5.88,12.743 z"
       id="path12"
       style="fill:none;stroke:#000396;stroke-width:3;stroke-miterlimit:10" /><path
       clip-path="url(#SVGID_2_)"
       d="m 84.236,112.921 c -5.029,0.011 -10.059,0.022 -15.088,0.034 -0.455,0.485 -0.911,0.969 -1.366,1.453 -0.046,28.743 -0.093,57.487 -0.139,86.23 l 1.506,1.479 c 5.012,0.027 10.025,0.053 15.037,0.078 0.506,-0.519 1.011,-1.038 1.517,-1.557 -0.036,-28.711 -0.071,-57.422 -0.108,-86.132 z"
       id="path14"
       style="fill:#296dc1" /><path
       clip-path="url(#SVGID_2_)"
       d="m 176.098,112.902 c -5.155,-0.004 -10.31,-0.007 -15.465,-0.011 -0.368,0.529 -0.737,1.058 -1.105,1.587 -0.005,19.012 -0.009,38.025 -0.013,57.037 -14.827,-19.139 -29.653,-38.278 -44.48,-57.418 -0.643,-0.396 -1.285,-0.792 -1.928,-1.187 -5.349,-0.009 -10.699,-0.019 -16.049,-0.028 -0.426,0.532 -0.852,1.064 -1.278,1.597 0.011,28.702 0.022,57.403 0.033,86.106 0.409,0.519 0.818,1.038 1.226,1.556 5.067,-0.02 10.134,-0.04 15.201,-0.06 0.468,-0.499 0.937,-0.997 1.406,-1.496 0.002,-19.033 0.004,-38.064 0.005,-57.097 14.877,19.253 29.754,38.505 44.63,57.758 0.471,0.284 0.943,0.568 1.415,0.853 5.536,0.016 11.071,0.03 16.608,0.045 l 1.063,-1.559 c -0.003,-28.703 -0.006,-57.404 -0.009,-86.106 z"
       id="path16"
       style="fill:#296dc1" /><path
       clip-path="url(#SVGID_2_)"
       d="m 206.62,135.843 c 0,-1.996 0.521,-3.645 1.654,-4.764 1.569,-1.55 3.796,-1.59 4.716,-1.606 5.148,-0.086 8.746,4.316 9.425,5.179 0.701,0.075 1.401,0.15 2.101,0.226 4,-2.963 8,-5.926 12,-8.889 0.143,-0.733 0.284,-1.466 0.426,-2.199 -1.46,-2.241 -5.4,-7.625 -12.728,-10.681 -2.099,-0.875 -6.103,-2.108 -11.224,-2.108 -14.141,0 -25.479,10.191 -25.479,24.842 0,24.843 37.582,24.206 37.582,39.493 0,6.369 -4.459,10.191 -10.829,10.191 -0.685,0 -3.131,0.001 -5.896,-1.287 -5.387,-2.507 -7.456,-7.752 -7.962,-9.166 -0.624,-0.11 -1.247,-0.222 -1.871,-0.334 -4.546,3.054 -9.091,6.107 -13.637,9.16 -0.12,0.295 -0.24,0.589 -0.361,0.884 4.609,12.396 16.541,19.217 29.727,19.217 17.199,0 29.938,-13.378 29.938,-28.665 0,-29.301 -37.582,-29.301 -37.582,-39.493"
       id="path18"
       style="fill:#296dc1" /><path
       clip-path="url(#SVGID_2_)"
       d="m 312.651,130.771 c 0.463,-0.495 0.926,-0.99 1.389,-1.484 -0.003,-4.997 -0.005,-9.995 -0.008,-14.992 -0.346,-0.485 -0.69,-0.971 -1.036,-1.457 -23.076,0.025 -46.153,0.049 -69.229,0.073 -0.36,0.523 -0.722,1.045 -1.082,1.567 0.021,4.884 0.043,9.768 0.064,14.652 0.523,0.516 1.049,1.032 1.571,1.548 8.373,0.023 16.745,0.047 25.117,0.07 -0.001,23.308 -0.002,46.615 -0.003,69.922 0.345,0.475 0.689,0.947 1.034,1.42 h 15.735 c 0.357,-0.49 0.714,-0.98 1.07,-1.471 0,-23.29 -0.001,-46.581 -0.001,-69.871 8.46,0.007 16.92,0.015 25.379,0.023"
       id="path20"
       style="fill:#296dc1" /><path
       clip-path="url(#SVGID_2_)"
       d="m 342.427,111.686 -40.609,88.435 1.017,1.461 h 14.326 1.781 0.809 l 1.612,-1.334 c 1.882,-4.045 5.704,-12.056 5.704,-12.056 h 31.003 c 1.826,3.992 3.651,8.024 5.478,12.026 l 1.194,1.363 h 17.681 l 0.808,-1.282 z m -7.906,60.864 8.075,-18.387 8.019,18.387 z"
       id="path22"
       style="fill:#296dc1" /><rect
       x="69.459"
       y="69.226997"
       transform="matrix(-0.7071,-0.7071,0.7071,-0.7071,78.7354,189.2929)"
       clip-path="url(#SVGID_2_)"
       width="18.225"
       height="18.225"
       id="rect24"
       style="fill:#296dc1" /><polygon
       clip-path="url(#SVGID_2_)"
       points="71.395,210.637 71.395,227.883 71.27,228.008 69.02,228.008 68.895,227.883 68.895,210.637 69.02,210.512 71.27,210.512 "
       id="polygon26"
       style="fill:#000396" /><path
       clip-path="url(#SVGID_2_)"
       d="m 77.77,216.261 0.125,0.125 v 0.375 c 0.875,-0.5 2,-0.875 3.124,-0.875 3.749,0 5.624,2.124 5.624,5.499 v 6.498 l -0.125,0.125 h -2.249 l -0.125,-0.125 v -6.373 c 0,-2 -1,-3.25 -3.125,-3.25 -1.249,0 -2.499,0.5 -3.124,1.25 v 8.373 l -0.125,0.125 h -2.25 l -0.125,-0.125 v -11.497 l 0.125,-0.125 z"
       id="path28"
       style="fill:#000396" /><path
       clip-path="url(#SVGID_2_)"
       d="m 97.769,219.51 c -1.25,-0.875 -2.499,-1.25 -3.749,-1.25 -1.125,0 -1.75,0.5 -1.75,1.125 0,2.125 6.874,0.375 6.874,5.249 0,2.124 -1.875,3.749 -4.874,3.749 -1.5,0 -3.374,-0.375 -4.499,-1.125 v -2.499 l 0.125,-0.125 c 1.375,0.875 2.999,1.374 4.374,1.374 1.749,0 2.249,-0.499 2.249,-1.374 0,-2.375 -6.873,-0.625 -6.873,-5.249 0,-1.999 1.75,-3.499 4.374,-3.499 1.499,0 2.874,0.375 3.874,1 v 2.499 z"
       id="path30"
       style="fill:#000396" /><path
       clip-path="url(#SVGID_2_)"
       d="m 104.645,213.262 0.125,0.148 v 2.851 h 4.499 l 0.125,0.125 v 2.249 l -0.125,0.125 h -4.499 v 4.499 c 0,2 0.875,2.749 1.875,2.749 0.7,0 1.649,-0.176 2.624,-0.874 l 0.125,0.125 v 2.374 c -0.675,0.399 -1.949,0.75 -2.749,0.75 -2.75,0 -4.374,-1.75 -4.374,-4.999 v -4.624 h -2 l -0.125,-0.125 v -2.249 l 0.125,-0.125 h 2 v -2.874 l 0.125,-0.125 z"
       id="path32"
       style="fill:#000396" /><path
       clip-path="url(#SVGID_2_)"
       d="m 113.27,211.887 1.5,1.5 v 0.25 l -1.5,1.499 h -0.25 l -1.5,-1.499 v -0.25 l 1.5,-1.5 z m 1,4.374 0.125,0.125 v 11.497 l -0.125,0.125 h -2.25 l -0.125,-0.125 v -11.497 l 0.125,-0.125 z"
       id="path34"
       style="fill:#000396" /><path
       clip-path="url(#SVGID_2_)"
       d="m 121.395,213.262 0.125,0.148 v 2.851 h 4.499 l 0.125,0.125 v 2.249 l -0.125,0.125 h -4.499 v 4.499 c 0,2 0.875,2.749 1.874,2.749 0.7,0 1.65,-0.176 2.625,-0.874 l 0.125,0.125 v 2.374 c -0.675,0.399 -1.95,0.75 -2.75,0.75 -2.749,0 -4.374,-1.75 -4.374,-4.999 v -4.624 h -1.999 l -0.125,-0.125 v -2.249 l 0.125,-0.125 h 1.999 v -2.874 l 0.125,-0.125 z"
       id="path36"
       style="fill:#000396" /><path
       clip-path="url(#SVGID_2_)"
       d="m 130.769,216.261 0.125,0.125 v 6.373 c 0,2 1,3.249 3.124,3.249 1.25,0 2.5,-0.499 3.125,-1.249 v -8.373 l 0.125,-0.125 h 2.249 l 0.125,0.125 v 11.497 l -0.125,0.125 h -2.249 l -0.125,-0.125 v -0.375 c -0.875,0.5 -2,0.875 -3.125,0.875 -3.749,0 -5.624,-2.125 -5.624,-5.499 v -6.498 l 0.125,-0.125 z"
       id="path38"
       style="fill:#000396" /><path
       clip-path="url(#SVGID_2_)"
       d="m 146.644,213.262 0.125,0.148 v 2.851 h 4.499 l 0.125,0.125 v 2.249 l -0.125,0.125 h -4.499 v 4.499 c 0,2 0.875,2.749 1.875,2.749 0.7,0 1.649,-0.176 2.624,-0.874 l 0.125,0.125 v 2.374 c -0.675,0.399 -1.949,0.75 -2.749,0.75 -2.75,0 -4.374,-1.75 -4.374,-4.999 v -4.624 h -2 l -0.125,-0.125 v -2.249 l 0.125,-0.125 h 2 v -2.874 l 0.125,-0.125 z"
       id="path40"
       style="fill:#000396" /><polygon
       clip-path="url(#SVGID_2_)"
       points="175.891,227.883 175.766,228.008 173.391,228.008 173.142,227.883 162.894,214.511 162.894,227.883 162.769,228.008 160.519,228.008 160.394,227.883 160.394,210.637 160.519,210.512 162.894,210.512 163.144,210.637 173.391,224.009 173.391,210.637 173.516,210.512 175.766,210.512 175.891,210.637 "
       id="polygon42"
       style="fill:#000396" /><path
       clip-path="url(#SVGID_2_)"
       d="m 180.644,216.636 c 0.75,-0.375 1.75,-0.75 3.124,-0.75 2.75,0 4.625,1.625 4.625,4.999 v 6.998 l -0.125,0.125 h -2.25 l -0.125,-0.125 v -0.375 c -0.875,0.625 -2.1,0.875 -2.875,0.875 -2.124,0 -4.123,-1 -4.123,-3.374 0,-3.499 3.624,-4.374 6.998,-4.624 0,-1.375 -0.875,-2.125 -2.25,-2.125 -1.374,0 -2.499,0.375 -3.999,1.375 l -0.125,-0.125 z m 5.249,5.873 c -2.625,0.125 -4.374,1 -4.374,2.25 0,0.875 0.625,1.249 1.749,1.249 0.875,0 1.75,-0.249 2.625,-0.749 z"
       id="path44"
       style="fill:#000396" /><path
       clip-path="url(#SVGID_2_)"
       d="m 194.643,213.262 0.125,0.148 v 2.851 h 4.499 l 0.125,0.125 v 2.249 l -0.125,0.125 h -4.499 v 4.499 c 0,2 0.875,2.749 1.875,2.749 0.7,0 1.649,-0.176 2.624,-0.874 l 0.125,0.125 v 2.374 c -0.675,0.399 -1.949,0.75 -2.749,0.75 -2.75,0 -4.374,-1.75 -4.374,-4.999 v -4.624 h -2 l -0.125,-0.125 v -2.249 l 0.125,-0.125 h 2 v -2.874 l 0.125,-0.125 z"
       id="path46"
       style="fill:#000396" /><path
       clip-path="url(#SVGID_2_)"
       d="m 203.268,211.887 1.5,1.5 v 0.25 l -1.5,1.499 h -0.25 l -1.5,-1.499 v -0.25 l 1.5,-1.5 z m 1,4.374 0.125,0.125 v 11.497 l -0.125,0.125 h -2.25 l -0.125,-0.125 v -11.497 l 0.125,-0.125 z"
       id="path48"
       style="fill:#000396" /><path
       clip-path="url(#SVGID_2_)"
       d="m 220.141,222.134 c 0,3.5 -2.75,6.249 -6.249,6.249 -3.499,0 -6.249,-2.749 -6.249,-6.249 0,-3.499 2.75,-6.248 6.249,-6.248 3.499,0 6.249,2.749 6.249,6.248 m -9.873,0 c 0,2.25 1.5,3.874 3.624,3.874 2.125,0 3.624,-1.624 3.624,-3.874 0,-2.249 -1.499,-3.874 -3.624,-3.874 -2.124,0 -3.624,1.625 -3.624,3.874"
       id="path50"
       style="fill:#000396" /><path
       clip-path="url(#SVGID_2_)"
       d="m 225.768,216.261 0.125,0.125 v 0.375 c 0.875,-0.5 1.999,-0.875 3.124,-0.875 3.749,0 5.624,2.124 5.624,5.499 v 6.498 l -0.125,0.125 h -2.25 l -0.125,-0.125 v -6.373 c 0,-2 -0.999,-3.25 -3.124,-3.25 -1.25,0 -2.499,0.5 -3.124,1.25 v 8.373 l -0.125,0.125 h -2.25 l -0.125,-0.125 v -11.497 l 0.125,-0.125 z"
       id="path52"
       style="fill:#000396" /><path
       clip-path="url(#SVGID_2_)"
       d="m 239.143,216.636 c 0.75,-0.375 1.75,-0.75 3.125,-0.75 2.749,0 4.623,1.625 4.623,4.999 v 6.998 l -0.125,0.125 h -2.249 l -0.125,-0.125 v -0.375 c -0.875,0.625 -2.1,0.875 -2.874,0.875 -2.125,0 -4.124,-1 -4.124,-3.374 0,-3.499 3.624,-4.374 6.998,-4.624 0,-1.375 -0.875,-2.125 -2.249,-2.125 -1.375,0 -2.5,0.375 -3.999,1.375 l -0.125,-0.125 z m 5.249,5.873 c -2.624,0.125 -4.374,1 -4.374,2.25 0,0.875 0.625,1.249 1.75,1.249 0.874,0 1.749,-0.249 2.624,-0.749 z"
       id="path54"
       style="fill:#000396" /><path
       clip-path="url(#SVGID_2_)"
       d="m 252.768,210.512 0.125,0.125 v 13.122 c 0,1.625 0.625,2.249 1.625,2.249 0.749,0 1.499,-0.249 2.249,-0.999 l 0.125,0.125 v 2.499 c -0.625,0.375 -1.5,0.75 -2.374,0.75 -2.625,0 -4.124,-1.625 -4.124,-4.499 v -13.247 l 0.125,-0.125 z"
       id="path56"
       style="fill:#000396" /><path
       clip-path="url(#SVGID_2_)"
       d="m 271.767,214.136 c -0.75,-0.874 -1.25,-1.374 -2.249,-1.374 -1,0 -1.75,0.75 -1.75,1.874 0,2.5 7.623,2.375 7.623,8.123 0,3.125 -2.499,5.624 -5.624,5.624 -2.499,0 -4.373,-1.375 -5.248,-3.624 l 1.874,-1.5 h 0.25 c 0.75,1.625 1.625,2.5 3.124,2.5 1.625,0 2.75,-1.25 2.75,-3 0,-3.499 -7.623,-3.249 -7.623,-8.123 0,-2.499 2.024,-4.499 4.624,-4.499 1.999,0 3.499,1.125 4.373,2.625 l -1.874,1.374 z"
       id="path58"
       style="fill:#000396" /><path
       clip-path="url(#SVGID_2_)"
       d="m 280.518,216.261 0.125,0.125 v 6.373 c 0,2 1,3.249 3.124,3.249 1.25,0 2.5,-0.499 3.124,-1.249 v -8.373 l 0.125,-0.125 h 2.25 l 0.125,0.125 v 11.497 l -0.125,0.125 h -2.25 l -0.125,-0.125 v -0.375 c -0.874,0.5 -1.999,0.875 -3.124,0.875 -3.749,0 -5.623,-2.125 -5.623,-5.499 v -6.498 l 0.125,-0.125 z"
       id="path60"
       style="fill:#000396" /><path
       clip-path="url(#SVGID_2_)"
       d="m 295.768,216.261 0.125,0.125 v 0.375 c 0.75,-0.5 1.874,-0.875 2.999,-0.875 3.499,0 6.249,2.749 6.249,6.248 0,3.5 -2.75,6.249 -6.249,6.249 -1.125,0 -2.249,-0.375 -2.999,-0.875 v 6.124 l -0.125,0.125 h -2.25 l -0.125,-0.125 v -17.246 l 0.125,-0.125 z m 0.125,8.498 c 0.875,0.875 1.874,1.249 2.999,1.249 2.125,0 3.624,-1.624 3.624,-3.874 0,-2.249 -1.499,-3.874 -3.624,-3.874 -1.125,0 -2.124,0.5 -2.999,1.25 z"
       id="path62"
       style="fill:#000396" /><path
       clip-path="url(#SVGID_2_)"
       d="m 318.891,226.758 c -1.125,0.75 -2.874,1.625 -4.749,1.625 -3.624,0 -6.498,-2.874 -6.498,-6.35 0,-3.398 2.374,-6.147 5.998,-6.147 3.124,0 5.249,2.749 5.249,6.124 0,0.124 0,0.35 -0.125,0.624 l -0.25,0.125 h -8.323 c 0.325,1.875 1.825,3.249 3.949,3.249 1.625,0 3.374,-0.749 4.624,-1.999 l 0.125,0.125 z m -2.5,-5.998 c -0.124,-1.375 -1.374,-2.5 -2.749,-2.5 -1.749,0 -2.999,1.125 -3.349,2.5 z m 1.15,-9.498 0.1,0.125 -3.999,3.624 -0.25,0.125 h -2.249 l -0.125,-0.125 3.374,-3.624 0.25,-0.125 z"
       id="path64"
       style="fill:#000396" /><path
       clip-path="url(#SVGID_2_)"
       d="m 324.268,216.261 0.125,0.125 v 0.375 c 0.875,-0.5 1.999,-0.875 3.124,-0.875 0.75,0 1.5,0.125 2.25,0.5 l 0.124,2.499 -0.124,0.125 c -0.75,-0.625 -1.625,-0.75 -2.25,-0.75 -1.25,0 -2.499,0.5 -3.124,1.25 v 8.373 l -0.125,0.125 h -2.25 l -0.125,-0.125 v -11.497 l 0.125,-0.125 z"
       id="path66"
       style="fill:#000396" /><path
       clip-path="url(#SVGID_2_)"
       d="m 333.768,211.887 1.5,1.5 v 0.25 l -1.5,1.499 h -0.25 l -1.499,-1.499 v -0.25 l 1.499,-1.5 z m 1,4.374 0.125,0.125 v 11.497 l -0.125,0.125 h -2.25 l -0.125,-0.125 v -11.497 l 0.125,-0.125 z"
       id="path68"
       style="fill:#000396" /><path
       clip-path="url(#SVGID_2_)"
       d="m 349.391,226.758 c -1.125,0.75 -2.874,1.625 -4.749,1.625 -3.624,0 -6.498,-2.874 -6.498,-6.35 0,-3.398 2.374,-6.147 5.998,-6.147 3.124,0 5.249,2.749 5.249,6.124 0,0.124 0,0.35 -0.125,0.624 l -0.25,0.125 h -8.323 c 0.325,1.875 1.825,3.249 3.949,3.249 1.625,0 3.374,-0.749 4.624,-1.999 l 0.125,0.125 z m -2.5,-5.998 c -0.124,-1.375 -1.374,-2.5 -2.749,-2.5 -1.749,0 -2.999,1.125 -3.349,2.5 z"
       id="path70"
       style="fill:#000396" /><path
       clip-path="url(#SVGID_2_)"
       d="m 354.518,216.261 0.125,0.125 v 6.373 c 0,2 1,3.249 3.124,3.249 1.25,0 2.5,-0.499 3.124,-1.249 v -8.373 l 0.125,-0.125 h 2.25 l 0.125,0.125 v 11.497 l -0.125,0.125 h -2.25 l -0.125,-0.125 v -0.375 c -0.874,0.5 -1.999,0.875 -3.124,0.875 -3.749,0 -5.623,-2.125 -5.623,-5.499 v -6.498 l 0.125,-0.125 z"
       id="path72"
       style="fill:#000396" /><path
       clip-path="url(#SVGID_2_)"
       d="m 369.768,216.261 0.125,0.125 v 0.375 c 0.875,-0.5 1.999,-0.875 3.124,-0.875 0.75,0 1.5,0.125 2.25,0.5 l 0.124,2.499 -0.124,0.125 c -0.75,-0.625 -1.625,-0.75 -2.25,-0.75 -1.25,0 -2.499,0.5 -3.124,1.25 v 8.373 l -0.125,0.125 h -2.25 l -0.125,-0.125 v -11.497 l 0.125,-0.125 z"
       id="path74"
       style="fill:#000396" /><path
       clip-path="url(#SVGID_2_)"
       d="m 79.769,238.512 0.124,0.125 v 17.246 l -0.124,0.125 h -2.25 l -0.125,-0.125 v -0.375 c -0.75,0.5 -1.875,0.875 -3,0.875 -3.499,0 -6.248,-2.749 -6.248,-6.249 0,-3.499 2.749,-6.248 6.248,-6.248 1.125,0 2.25,0.375 3,0.875 v -6.124 l 0.125,-0.125 z m -2.375,8.998 c -0.875,-0.75 -1.875,-1.25 -3,-1.25 -2.124,0 -3.624,1.625 -3.624,3.874 0,2.25 1.5,3.874 3.624,3.874 1.125,0 2.125,-0.374 3,-1.249 z"
       id="path76"
       style="fill:#000396" /><path
       clip-path="url(#SVGID_2_)"
       d="m 94.394,254.758 c -1.125,0.75 -2.875,1.625 -4.75,1.625 -3.624,0 -6.498,-2.874 -6.498,-6.35 0,-3.398 2.374,-6.147 5.998,-6.147 3.125,0 5.25,2.749 5.25,6.124 0,0.124 0,0.35 -0.125,0.624 l -0.25,0.125 h -8.323 c 0.324,1.875 1.824,3.249 3.948,3.249 1.625,0 3.375,-0.749 4.625,-1.999 l 0.125,0.125 z m -2.5,-5.998 c -0.125,-1.375 -1.375,-2.5 -2.75,-2.5 -1.749,0 -2.999,1.125 -3.349,2.5 z"
       id="path78"
       style="fill:#000396" /><path
       clip-path="url(#SVGID_2_)"
       d="m 104.769,247.51 c -1.25,-0.875 -2.499,-1.25 -3.749,-1.25 -1.125,0 -1.75,0.5 -1.75,1.125 0,2.125 6.874,0.375 6.874,5.249 0,2.124 -1.875,3.749 -4.874,3.749 -1.5,0 -3.374,-0.375 -4.499,-1.125 v -2.499 l 0.125,-0.125 c 1.375,0.875 2.999,1.374 4.374,1.374 1.749,0 2.249,-0.499 2.249,-1.374 0,-2.375 -6.873,-0.625 -6.873,-5.249 0,-1.999 1.75,-3.499 4.374,-3.499 1.499,0 2.874,0.375 3.874,1 v 2.499 z"
       id="path80"
       style="fill:#000396" /><polygon
       clip-path="url(#SVGID_2_)"
       points="112.895,240.887 112.895,238.637 113.02,238.512 126.767,238.512 126.892,238.637 126.892,240.887 126.767,241.012 121.143,241.012 121.143,255.883 121.018,256.008 118.769,256.008 118.644,255.883 118.644,241.012 113.02,241.012 "
       id="polygon82"
       style="fill:#000396" /><path
       clip-path="url(#SVGID_2_)"
       d="m 140.143,254.758 c -1.125,0.75 -2.875,1.625 -4.75,1.625 -3.624,0 -6.498,-2.874 -6.498,-6.35 0,-3.398 2.374,-6.147 5.998,-6.147 3.125,0 5.25,2.749 5.25,6.124 0,0.124 0,0.35 -0.125,0.624 l -0.25,0.125 h -8.324 c 0.325,1.875 1.825,3.249 3.949,3.249 1.625,0 3.375,-0.749 4.625,-1.999 l 0.125,0.125 z m -2.5,-5.998 c -0.125,-1.375 -1.375,-2.5 -2.75,-2.5 -1.749,0 -2.999,1.125 -3.349,2.5 z"
       id="path84"
       style="fill:#000396" /><path
       clip-path="url(#SVGID_2_)"
       d="m 152.768,247.885 c -1.25,-1.125 -2.5,-1.625 -3.874,-1.625 -2.375,0 -3.874,1.725 -3.874,3.874 0,2.149 1.499,3.874 3.874,3.874 1.374,0 2.624,-0.499 3.874,-1.624 l 0.125,0.125 v 2.624 c -1,0.75 -2.375,1.25 -3.999,1.25 -3.874,0 -6.499,-2.8 -6.499,-6.249 0,-3.448 2.625,-6.248 6.499,-6.248 1.624,0 2.999,0.5 3.999,1.25 v 2.624 z"
       id="path86"
       style="fill:#000396" /><path
       clip-path="url(#SVGID_2_)"
       d="m 158.27,238.512 0.125,0.125 v 6.124 c 0.875,-0.5 2,-0.875 3.124,-0.875 3.749,0 5.624,2.124 5.624,5.499 v 6.498 l -0.125,0.125 h -2.249 l -0.125,-0.125 v -6.373 c 0,-2 -1,-3.25 -3.125,-3.25 -1.249,0 -2.499,0.5 -3.124,1.25 v 8.373 l -0.125,0.125 h -2.25 l -0.125,-0.125 v -17.246 l 0.125,-0.125 z"
       id="path88"
       style="fill:#000396" /><path
       clip-path="url(#SVGID_2_)"
       d="m 173.27,244.261 0.125,0.125 v 0.375 c 0.875,-0.5 2,-0.875 3.124,-0.875 3.749,0 5.624,2.124 5.624,5.499 v 6.498 l -0.125,0.125 h -2.249 l -0.125,-0.125 v -6.373 c 0,-2 -1,-3.25 -3.125,-3.25 -1.249,0 -2.499,0.5 -3.124,1.25 v 8.373 l -0.125,0.125 h -2.25 l -0.125,-0.125 v -11.497 l 0.125,-0.125 z"
       id="path90"
       style="fill:#000396" /><path
       clip-path="url(#SVGID_2_)"
       d="m 197.643,250.134 c 0,3.5 -2.75,6.249 -6.249,6.249 -3.499,0 -6.249,-2.749 -6.249,-6.249 0,-3.499 2.75,-6.248 6.249,-6.248 3.499,0 6.249,2.749 6.249,6.248 m -9.873,0 c 0,2.25 1.5,3.874 3.624,3.874 2.125,0 3.624,-1.624 3.624,-3.874 0,-2.249 -1.499,-3.874 -3.624,-3.874 -2.124,0 -3.624,1.625 -3.624,3.874"
       id="path92"
       style="fill:#000396" /><path
       clip-path="url(#SVGID_2_)"
       d="m 203.02,238.512 0.125,0.125 v 13.122 c 0,1.625 0.625,2.249 1.625,2.249 0.75,0 1.499,-0.249 2.249,-0.999 l 0.125,0.125 v 2.499 c -0.625,0.375 -1.499,0.75 -2.374,0.75 -2.625,0 -4.125,-1.625 -4.125,-4.499 v -13.247 l 0.125,-0.125 z"
       id="path94"
       style="fill:#000396" /><path
       clip-path="url(#SVGID_2_)"
       d="m 220.643,250.134 c 0,3.5 -2.749,6.249 -6.248,6.249 -3.5,0 -6.25,-2.749 -6.25,-6.249 0,-3.499 2.75,-6.248 6.25,-6.248 3.499,0 6.248,2.749 6.248,6.248 m -9.873,0 c 0,2.25 1.5,3.874 3.625,3.874 2.124,0 3.624,-1.624 3.624,-3.874 0,-2.249 -1.5,-3.874 -3.624,-3.874 -2.125,0 -3.625,1.625 -3.625,3.874"
       id="path96"
       style="fill:#000396" /><path
       clip-path="url(#SVGID_2_)"
       d="m 234.018,244.386 v 2.249 l -0.125,0.125 h -1.375 c 0.226,0.55 0.375,1.125 0.375,1.75 0,2.624 -1.874,4.624 -4.749,4.624 -0.624,0 -1.249,-0.125 -1.749,-0.375 -0.125,0.125 -0.25,0.25 -0.25,0.5 0,1.624 7.998,0.749 7.998,5.498 0,2.225 -2.25,3.874 -5.749,3.874 -3.499,0 -6.248,-0.999 -6.248,-3.749 0,-1.374 1.125,-2.499 2.624,-3.499 -0.5,-0.375 -0.999,-0.875 -0.999,-1.749 0,-0.625 0.374,-1.375 1.049,-1.875 -0.925,-0.875 -1.424,-1.949 -1.424,-3.249 0,-2.55 2.124,-4.624 4.748,-4.624 0.65,0 1.3,0.149 1.875,0.375 h 3.874 z m -9.248,14.496 c 0,1 1.125,1.5 3.624,1.5 2.125,0 3.125,-0.75 3.125,-1.625 0,-1.624 -3.5,-2.124 -4.749,-2.499 -0.875,0.5 -2,1.524 -2,2.624 m 1.125,-10.372 c 0,1.3 0.95,2.374 2.249,2.374 1.3,0 2.25,-1.074 2.25,-2.374 0,-1.3 -0.95,-2.375 -2.25,-2.375 -1.299,0 -2.249,1.075 -2.249,2.375"
       id="path98"
       style="fill:#000396" /><path
       clip-path="url(#SVGID_2_)"
       d="m 237.77,239.887 1.5,1.5 v 0.25 l -1.5,1.499 h -0.25 l -1.499,-1.499 v -0.25 l 1.499,-1.5 z m 1,4.374 0.125,0.125 v 11.497 l -0.125,0.125 h -2.25 l -0.125,-0.125 v -11.497 l 0.125,-0.125 z"
       id="path100"
       style="fill:#000396" /><path
       clip-path="url(#SVGID_2_)"
       d="m 253.393,254.758 c -1.125,0.75 -2.874,1.625 -4.749,1.625 -3.624,0 -6.498,-2.874 -6.498,-6.35 0,-3.398 2.374,-6.147 5.998,-6.147 3.124,0 5.249,2.749 5.249,6.124 0,0.124 0,0.35 -0.125,0.624 l -0.25,0.125 h -8.323 c 0.325,1.875 1.825,3.249 3.949,3.249 1.625,0 3.374,-0.749 4.624,-1.999 l 0.125,0.125 z m -2.5,-5.998 c -0.124,-1.375 -1.374,-2.5 -2.749,-2.5 -1.749,0 -2.999,1.125 -3.349,2.5 z"
       id="path102"
       style="fill:#000396" /><path
       clip-path="url(#SVGID_2_)"
       d="m 263.769,247.51 c -1.25,-0.875 -2.5,-1.25 -3.749,-1.25 -1.125,0 -1.75,0.5 -1.75,1.125 0,2.125 6.873,0.375 6.873,5.249 0,2.124 -1.874,3.749 -4.873,3.749 -1.5,0 -3.375,-0.375 -4.499,-1.125 v -2.499 l 0.125,-0.125 c 1.374,0.875 2.999,1.374 4.374,1.374 1.749,0 2.249,-0.499 2.249,-1.374 0,-2.375 -6.873,-0.625 -6.873,-5.249 0,-1.999 1.749,-3.499 4.374,-3.499 1.499,0 2.874,0.375 3.874,1 v 2.499 z"
       id="path104"
       style="fill:#000396" /><path
       clip-path="url(#SVGID_2_)"
       d="m 280.769,238.512 0.125,0.125 6.998,17.246 -0.125,0.125 h -2.5 l -0.124,-0.125 -1.625,-3.999 h -7.748 l -1.625,3.999 -0.125,0.125 h -2.499 l -0.125,-0.125 6.998,-17.246 0.125,-0.125 z m -3.999,10.873 h 5.748 l -2.874,-7.373 z"
       id="path106"
       style="fill:#000396" /><polygon
       clip-path="url(#SVGID_2_)"
       points="287.521,244.261 290.021,244.261 290.146,244.386 293.395,252.634 296.645,244.386 296.77,244.261 299.269,244.261 299.394,244.386 294.645,255.883 294.52,256.008 292.271,256.008 292.146,255.883 287.396,244.386 "
       id="polygon108"
       style="fill:#000396" /><path
       clip-path="url(#SVGID_2_)"
       d="m 301.896,244.636 c 0.75,-0.375 1.75,-0.75 3.125,-0.75 2.749,0 4.623,1.625 4.623,4.999 v 6.998 l -0.125,0.125 h -2.249 l -0.125,-0.125 v -0.375 c -0.875,0.625 -2.1,0.875 -2.874,0.875 -2.125,0 -4.124,-1 -4.124,-3.374 0,-3.499 3.624,-4.374 6.998,-4.624 0,-1.375 -0.875,-2.125 -2.249,-2.125 -1.375,0 -2.5,0.375 -3.999,1.375 l -0.125,-0.125 z m 5.249,5.873 c -2.624,0.125 -4.374,1 -4.374,2.25 0,0.875 0.625,1.249 1.75,1.249 0.874,0 1.749,-0.249 2.624,-0.749 z"
       id="path110"
       style="fill:#000396" /><path
       clip-path="url(#SVGID_2_)"
       d="m 315.771,244.261 0.125,0.125 v 0.375 c 0.875,-0.5 1.999,-0.875 3.124,-0.875 3.749,0 5.624,2.124 5.624,5.499 v 6.498 l -0.125,0.125 h -2.25 l -0.125,-0.125 v -6.373 c 0,-2 -0.999,-3.25 -3.124,-3.25 -1.25,0 -2.499,0.5 -3.124,1.25 v 8.373 l -0.125,0.125 h -2.25 l -0.124,-0.125 v -11.497 l 0.124,-0.125 z"
       id="path112"
       style="fill:#000396" /><path
       clip-path="url(#SVGID_2_)"
       d="m 338.019,247.885 c -1.25,-1.125 -2.499,-1.625 -3.874,-1.625 -2.374,0 -3.874,1.725 -3.874,3.874 0,2.149 1.5,3.874 3.874,3.874 1.375,0 2.624,-0.499 3.874,-1.624 l 0.125,0.125 v 2.624 c -1,0.75 -2.374,1.25 -3.999,1.25 -3.874,0 -6.498,-2.8 -6.498,-6.249 0,-3.448 2.624,-6.248 6.498,-6.248 1.625,0 2.999,0.5 3.999,1.25 v 2.624 z"
       id="path114"
       style="fill:#000396" /><path
       clip-path="url(#SVGID_2_)"
       d="m 351.644,254.758 c -1.125,0.75 -2.874,1.625 -4.749,1.625 -3.624,0 -6.498,-2.874 -6.498,-6.35 0,-3.398 2.374,-6.147 5.998,-6.147 3.124,0 5.249,2.749 5.249,6.124 0,0.124 0,0.35 -0.125,0.624 l -0.25,0.125 h -8.323 c 0.325,1.875 1.825,3.249 3.949,3.249 1.625,0 3.374,-0.749 4.624,-1.999 l 0.125,0.125 z m -2.499,-5.998 c -0.125,-1.375 -1.375,-2.5 -2.75,-2.5 -1.749,0 -2.999,1.125 -3.349,2.5 z m 1.149,-9.498 0.1,0.125 -3.999,3.624 -0.25,0.125 h -2.249 l -0.125,-0.125 3.374,-3.624 0.25,-0.125 z"
       id="path116"
       style="fill:#000396" /><path
       clip-path="url(#SVGID_2_)"
       d="m 365.144,254.758 c -1.125,0.75 -2.874,1.625 -4.749,1.625 -3.624,0 -6.498,-2.874 -6.498,-6.35 0,-3.398 2.374,-6.147 5.998,-6.147 3.124,0 5.249,2.749 5.249,6.124 0,0.124 0,0.35 -0.125,0.624 l -0.25,0.125 h -8.323 c 0.325,1.875 1.825,3.249 3.949,3.249 1.625,0 3.374,-0.749 4.624,-1.999 l 0.125,0.125 z m -2.499,-5.998 c -0.125,-1.375 -1.375,-2.5 -2.75,-2.5 -1.749,0 -2.999,1.125 -3.349,2.5 z"
       id="path118"
       style="fill:#000396" /><path
       clip-path="url(#SVGID_2_)"
       d="m 375.52,247.51 c -1.25,-0.875 -2.5,-1.25 -3.749,-1.25 -1.125,0 -1.75,0.5 -1.75,1.125 0,2.125 6.873,0.375 6.873,5.249 0,2.124 -1.874,3.749 -4.873,3.749 -1.5,0 -3.375,-0.375 -4.499,-1.125 v -2.499 l 0.125,-0.125 c 1.374,0.875 2.999,1.374 4.374,1.374 1.749,0 2.249,-0.499 2.249,-1.374 0,-2.375 -6.873,-0.625 -6.873,-5.249 0,-1.999 1.749,-3.499 4.374,-3.499 1.499,0 2.874,0.375 3.874,1 v 2.499 z"
       id="path120"
       style="fill:#000396" /></g></svg>